Coordinates
version=1
nRows=16
nColumns=40
inDegrees=yes

Units are S.I. units (second, meters, Newtons, ...)
If the header above contains a line with 'inDegrees', this indicates whether rotational values are in degrees (yes) or radians (no).

endheader
time	pelvis_tilt	pelvis_list	pelvis_rotation	pelvis_tx	pelvis_ty	pelvis_tz	hip_flexion_r	hip_adduction_r	hip_rotation_r	knee_angle_r	knee_angle_r_beta	ankle_angle_r	subtalar_angle_r	mtp_angle_r	hip_flexion_l	hip_adduction_l	hip_rotation_l	knee_angle_l	knee_angle_l_beta	ankle_angle_l	subtalar_angle_l	mtp_angle_l	lumbar_extension	lumbar_bending	lumbar_rotation	arm_flex_r	arm_add_r	arm_rot_r	elbow_flex_r	pro_sup_r	wrist_flex_r	wrist_dev_r	arm_flex_l	arm_add_l	arm_rot_l	elbow_flex_l	pro_sup_l	wrist_flex_l	wrist_dev_l
      5.17000000	     44.45733850	     -0.23292405	   -177.97243119	      0.46425788	      0.64101674	     -0.61831123	    104.19328474	    -12.10725403	     -1.25963694	     73.58081658	      1.28422752	     17.32911898	      0.00000000	      0.00000000	    103.06613216	     -8.71735598	      1.94166854	     71.43971275	      1.24685820	     15.04397779	      0.00000000	      0.00000000	    -26.37772971	      1.98278501	      3.57127085	     64.89306005	    -10.33843163	     42.98229650	      1.09652772	     86.07663225	      0.00000000	      0.00000000	     55.49010012	     -0.94692698	     52.63394260	      0.57514724	      2.54201000	      0.00000000	      0.00000000
      5.17500000	     44.64507268	     -0.28441273	   -177.90888597	      0.46433356	      0.64271324	     -0.61800451	    104.13617095	    -12.23501085	     -1.33934117	     73.17462480	      1.27713813	     17.07849606	      0.00000000	      0.00000000	    102.96593962	     -8.62302795	      1.79842640	     70.98655499	      1.23894911	     14.80673051	      0.00000000	      0.00000000	    -26.37967354	      1.99389357	      3.51821487	     64.97101472	    -10.39788424	     42.87223000	      1.10387905	     86.19432208	      0.00000000	      0.00000000	     55.36398658	     -0.99248430	     54.11400308	      0.56849867	      2.49934402	      0.00000000	      0.00000000
      5.18000000	     44.80103122	     -0.35898154	   -177.93751465	      0.46434247	      0.64448819	     -0.61793564	    104.01527553	    -12.17707602	     -1.32237607	     72.71187943	      1.26906170	     16.89490374	      0.00000000	      0.00000000	    102.81994109	     -8.69964479	      1.58612524	     70.55670794	      1.23144686	     14.60979011	      0.00000000	      0.00000000	    -26.44268786	      1.94552597	      3.48030906	     65.07325589	    -10.37663409	     43.12188558	      1.09682490	     85.98433282	      0.00000000	      0.00000000	     55.46151440	     -0.98611481	     53.90437313	      0.57005611	      2.51313790	      0.00000000	      0.00000000
      5.18500000	     45.01800125	     -0.38252013	   -177.98957663	      0.46441451	      0.64611070	     -0.61794022	    103.97226958	    -12.12764578	     -1.39279515	     72.28733913	      1.26165208	     16.63043683	      0.00000000	      0.00000000	    102.75752353	     -8.73951623	      1.50965886	     70.12967962	      1.22399381	     14.45336996	      0.00000000	      0.00000000	    -26.40251139	      1.91973981	      3.57128379	     65.13829524	    -10.44429524	     42.66853295	      1.10247619	     86.14572362	      0.00000000	      0.00000000	     55.40426361	     -0.98996129	     54.90521799	      0.56632083	      2.50838872	      0.00000000	      0.00000000
      5.19000000	     45.14594856	     -0.40410280	   -177.96015545	      0.46442393	      0.64792185	     -0.61773413	    103.80643294	    -12.15740237	     -1.44952557	     71.82673513	      1.25361302	     16.50844054	      0.00000000	      0.00000000	    102.60011239	     -8.69380391	      1.39451994	     69.69220606	      1.21635846	     14.18221881	      0.00000000	      0.00000000	    -26.48360059	      1.95313706	      3.54839862	     65.23037006	    -10.50957558	     43.03068794	      1.10560656	     86.06056006	      0.00000000	      0.00000000	     55.40919293	     -0.99383202	     55.51754013	      0.56545278	      2.49379229	      0.00000000	      0.00000000
      5.19500000	     45.36645715	     -0.37436067	   -178.02055017	      0.46445675	      0.64956000	     -0.61786733	    103.73516825	    -12.07624939	     -1.55416398	     71.38392379	      1.24588450	     16.25789132	      0.00000000	      0.00000000	    102.55151046	     -8.77606361	      1.33573364	     69.24151992	      1.20849250	     13.95968167	      0.00000000	      0.00000000	    -26.44596597	      1.96573114	      3.62780201	     65.29433631	    -10.51480220	     42.66053637	      1.10508629	     86.13432015	      0.00000000	      0.00000000	     55.57586190	     -0.90744725	     54.61861196	      0.56782693	      2.51167316	      0.00000000	      0.00000000
      5.20000000	     45.50058446	     -0.37551248	   -177.95612594	      0.46442897	      0.65132891	     -0.61755633	    103.57941423	    -12.16955810	     -1.66436850	     70.94327708	      1.23819377	     16.13545414	      0.00000000	      0.00000000	    102.38269587	     -8.70917692	      1.18635927	     68.78865482	      1.20058851	     13.75230309	      0.00000000	      0.00000000	    -26.50142112	      2.04320663	      3.59058095	     65.38459055	    -10.57625900	     43.11347352	      1.09445874	     86.11911374	      0.00000000	      0.00000000	     55.54761719	     -0.89273932	     55.15192482	      0.56977210	      2.49738239	      0.00000000	      0.00000000
      5.20500000	     45.68317170	     -0.51044149	   -177.95261991	      0.46441471	      0.65303759	     -0.61733435	    103.49839723	    -12.16417190	     -1.61123245	     70.46407496	      1.22983011	     15.96925845	      0.00000000	      0.00000000	    102.21137921	     -8.71578851	      0.92980559	     68.30610993	      1.19216652	     13.56529376	      0.00000000	      0.00000000	    -26.51442756	      1.94023384	      3.45866441	     65.46788406	    -10.51717349	     43.40062225	      1.08039422	     86.14166640	      0.00000000	      0.00000000	     55.93134269	     -0.74210404	     52.53978052	      0.57992949	      2.53500337	      0.00000000	      0.00000000
      5.21000000	     45.86367767	     -0.49629650	   -178.05454848	      0.46450308	      0.65477604	     -0.61759283	    103.38595417	    -12.01266468	     -1.67312581	     70.01640297	      1.22201676	     15.73682950	      0.00000000	      0.00000000	    102.11181755	     -8.80816284	      0.91482395	     67.83173325	      1.18388708	     13.34727044	      0.00000000	      0.00000000	    -26.52670320	      1.92211432	      3.59580647	     65.54586438	    -10.53371616	     43.19084904	      1.08452592	     86.03884999	      0.00000000	      0.00000000	     55.78898470	     -0.80548029	     53.95771285	      0.56731389	      2.50169630	      0.00000000	      0.00000000
      5.21500000	     45.85314130	     -0.44436592	   -177.97539020	      0.46417396	      0.65666129	     -0.61732228	    103.06094117	    -12.11888086	     -1.80849286	     69.61208016	      1.21496000	     15.65595202	      0.00000000	      0.00000000	    101.81095543	     -8.75808138	      0.78987890	     67.41910265	      1.17668532	     13.23992888	      0.00000000	      0.00000000	    -26.73457441	      2.04698230	      3.53955401	     65.64251241	    -10.57020622	     43.39354440	      1.09434607	     86.07107456	      0.00000000	      0.00000000	     55.80313856	     -0.78471152	     54.14290346	      0.57050698	      2.44062331	      0.00000000	      0.00000000
      5.22000000	     46.14873037	     -0.62268780	   -177.97853863	      0.46441296	      0.65815365	     -0.61707140	    103.15456450	    -12.14580766	     -1.75524548	     69.17772933	      1.20737915	     15.33903295	      0.00000000	      0.00000000	    101.77051088	     -8.71657630	      0.57454422	     66.92990711	      1.16814725	     12.99559037	      0.00000000	      0.00000000	    -26.59831328	      1.90433173	      3.44878482	     65.68572576	    -10.56733389	     43.52170483	      1.08492887	     86.05215661	      0.00000000	      0.00000000	     55.80410228	     -0.79466010	     54.15275843	      0.56711611	      2.52425482	      0.00000000	      0.00000000
      5.22500000	     46.36218805	     -0.80690550	   -177.96131897	      0.46446858	      0.65976875	     -0.61675695	    103.13785812	    -12.13729135	     -1.61099158	     68.71265476	      1.19926206	     15.14747664	      0.00000000	      0.00000000	    101.63381593	     -8.70197483	      0.26864775	     66.46760870	      1.16007862	     12.78927097	      0.00000000	      0.00000000	    -26.56874565	      1.77181942	      3.26668974	     65.77871042	    -10.49875411	     43.57708560	      1.08026387	     85.91102446	      0.00000000	      0.00000000	     56.37331968	     -0.57353810	     50.32711289	      0.57862118	      2.57118459	      0.00000000	      0.00000000
      5.23000000	     46.46492176	     -0.91181954	   -178.02729553	      0.46440725	      0.66158652	     -0.61673250	    102.96461212	    -12.09019226	     -1.65523466	     68.24451414	      1.19109147	     14.91187491	      0.00000000	      0.00000000	    101.41886707	     -8.74654653	      0.10794636	     66.03161781	      1.15246914	     12.66925412	      0.00000000	      0.00000000	    -26.64909528	      1.67547200	      3.24572118	     65.83359209	    -10.48469353	     44.11197748	      1.07394115	     85.89149280	      0.00000000	      0.00000000	     56.25318513	     -0.66268121	     51.32752857	      0.57457667	      2.53472733	      0.00000000	      0.00000000
      5.23500000	     46.67253151	     -0.80236929	   -178.10206095	      0.46450538	      0.66319265	     -0.61685722	    102.84697516	    -11.97871685	     -1.82855836	     67.76723339	      1.18276135	     14.71738638	      0.00000000	      0.00000000	    101.38380041	     -8.81069972	      0.15573910	     65.57251411	      1.14445627	     12.40876721	      0.00000000	      0.00000000	    -26.60864343	      1.77170305	      3.40915437	     65.89698925	    -10.56492377	     43.60933162	      1.07884312	     86.01161856	      0.00000000	      0.00000000	     56.25682473	     -0.60213235	     51.52105976	      0.57376459	      2.55836936	      0.00000000	      0.00000000
      5.24000000	     46.73324681	     -0.76651564	   -178.05794814	      0.46439307	      0.66487017	     -0.61663973	    102.63389669	    -12.08746261	     -2.00386418	     67.38454989	      1.17608226	     14.56441203	      0.00000000	      0.00000000	    101.18220020	     -8.74460856	      0.09435821	     65.16452571	      1.13733553	     12.24176931	      0.00000000	      0.00000000	    -26.70587287	      1.87495062	      3.38025681	     65.96130383	    -10.57960719	     43.88914217	      1.09075716	     86.02390852	      0.00000000	      0.00000000	     56.05153756	     -0.67898133	     53.18932840	      0.56992272	      2.50856266	      0.00000000	      0.00000000
      5.24500000	     46.89192462	     -0.80957445	   -178.09402594	      0.46437081	      0.66649322	     -0.61654128	    102.51240247	    -12.02461158	     -2.01549306	     66.91334109	      1.16785812	     14.38294027	      0.00000000	      0.00000000	    101.04853071	     -8.76744341	     -0.02802202	     64.72963425	      1.12974524	     12.05733818	      0.00000000	      0.00000000	    -26.70804185	      1.84883695	      3.38126464	     66.02304735	    -10.59383598	     43.55829865	      1.06937336	     86.09098911	      0.00000000	      0.00000000	     56.19517691	     -0.60153551	     52.56218439	      0.57433876	      2.50462194	      0.00000000	      0.00000000
